<svg xmlns="http://www.w3.org/2000/svg" viewBox="0 0 59.48 92.52"><defs><style>.cls-1{fill:#4b2117;}.cls-2{fill:#d83f16;}</style></defs><g id="Layer_2" data-name="Layer 2"><g id="OBJECTS"><rect class="cls-1" width="6.61" height="6.61"/><rect class="cls-1" y="6.61" width="6.61" height="6.61"/><rect class="cls-1" y="13.22" width="6.61" height="6.61"/><rect class="cls-1" y="19.83" width="6.61" height="6.61"/><rect class="cls-1" y="26.44" width="6.61" height="6.61"/><rect class="cls-1" y="33.04" width="6.61" height="6.61"/><rect class="cls-1" y="39.65" width="6.61" height="6.61"/><rect class="cls-1" y="46.26" width="6.61" height="6.61"/><rect class="cls-1" x="6.61" y="6.61" width="6.61" height="6.61"/><rect class="cls-1" x="6.61" y="46.26" width="6.61" height="6.61"/><rect class="cls-1" x="13.22" y="6.61" width="6.61" height="6.61"/><rect class="cls-1" x="13.22" y="46.26" width="6.61" height="6.61"/><rect class="cls-1" x="19.83" y="6.61" width="6.61" height="6.61"/><rect class="cls-1" x="19.83" y="46.26" width="6.61" height="6.61"/><rect class="cls-1" x="26.44" y="6.61" width="6.61" height="6.61"/><rect class="cls-1" x="26.44" y="46.26" width="6.61" height="6.61"/><rect class="cls-1" x="33.04" y="6.61" width="6.61" height="6.61"/><rect class="cls-1" x="33.04" y="46.26" width="6.61" height="6.61"/><rect class="cls-1" x="39.65" y="6.61" width="6.61" height="6.61"/><rect class="cls-1" x="39.65" y="46.26" width="6.61" height="6.61"/><rect class="cls-1" x="46.26" y="6.61" width="6.61" height="6.61"/><rect class="cls-1" x="46.26" y="46.26" width="6.61" height="6.61"/><rect class="cls-1" x="52.87" y="6.61" width="6.61" height="6.61"/><rect class="cls-1" x="46.26" y="13.22" width="6.61" height="6.61"/><rect class="cls-2" x="39.65" y="13.22" width="6.61" height="6.61"/><rect class="cls-2" x="33.04" y="13.22" width="6.61" height="6.61"/><rect class="cls-2" x="26.44" y="13.22" width="6.61" height="6.61"/><rect class="cls-2" x="19.83" y="13.22" width="6.61" height="6.61"/><rect class="cls-2" x="13.22" y="13.22" width="6.61" height="6.61"/><rect class="cls-2" x="6.61" y="13.22" width="6.61" height="6.61"/><rect class="cls-2" x="33.04" y="19.83" width="6.61" height="6.61"/><rect class="cls-2" x="26.44" y="19.83" width="6.61" height="6.61"/><rect class="cls-2" x="19.83" y="19.83" width="6.61" height="6.61"/><rect class="cls-2" x="6.61" y="19.83" width="6.61" height="6.61"/><rect class="cls-2" x="13.22" y="19.83" width="6.61" height="6.61"/><rect class="cls-2" x="39.65" y="39.65" width="6.61" height="6.61"/><rect class="cls-2" x="33.04" y="39.65" width="6.61" height="6.61"/><rect class="cls-2" x="26.44" y="39.65" width="6.61" height="6.61"/><rect class="cls-2" x="19.83" y="39.65" width="6.61" height="6.61"/><rect class="cls-2" x="13.22" y="39.65" width="6.61" height="6.61"/><rect class="cls-2" x="6.61" y="39.65" width="6.61" height="6.61"/><rect class="cls-2" x="33.04" y="33.04" width="6.61" height="6.61"/><rect class="cls-2" x="26.44" y="33.04" width="6.61" height="6.61"/><rect class="cls-2" x="19.83" y="33.04" width="6.61" height="6.61"/><rect class="cls-2" x="6.61" y="33.04" width="6.61" height="6.61"/><rect class="cls-2" x="13.22" y="33.04" width="6.61" height="6.61"/><rect class="cls-2" x="26.44" y="26.44" width="6.61" height="6.61"/><rect class="cls-2" x="19.83" y="26.44" width="6.61" height="6.61"/><rect class="cls-2" x="6.61" y="26.44" width="6.61" height="6.61"/><rect class="cls-2" x="13.22" y="26.44" width="6.61" height="6.61"/><rect class="cls-1" x="39.65" y="19.83" width="6.61" height="6.61"/><rect class="cls-1" x="33.04" y="26.44" width="6.61" height="6.61"/><rect class="cls-1" x="39.65" y="33.04" width="6.61" height="6.61"/><rect class="cls-1" x="46.26" y="39.65" width="6.61" height="6.61"/><rect class="cls-1" x="52.87" y="46.26" width="6.61" height="6.61"/><rect class="cls-1" y="52.87" width="6.61" height="6.61"/><rect class="cls-1" y="59.48" width="6.61" height="6.61"/><rect class="cls-1" y="66.09" width="6.61" height="6.61"/><rect class="cls-1" y="72.7" width="6.61" height="6.61"/><rect class="cls-1" y="79.31" width="6.61" height="6.61"/><rect class="cls-1" y="85.92" width="6.61" height="6.61"/></g></g></svg>